<mxfile host="app.diagrams.net" modified="2023-10-12T19:05:38.692Z" agent="Mozilla/5.0 (Macintosh; Intel Mac OS X 10_15_7) AppleWebKit/537.36 (KHTML, like Gecko) Chrome/116.0.0.0 Safari/537.36" etag="sQbQXiuw-G9RZ5o1mhbi" version="22.0.4" type="device">
  <diagram name="Page-1" id="JBOXGHTPe8i9dbkMzuEF">
    <mxGraphModel dx="1399" dy="930" grid="1" gridSize="10" guides="1" tooltips="1" connect="1" arrows="1" fold="1" page="1" pageScale="1" pageWidth="850" pageHeight="1100" math="0" shadow="0">
      <root>
        <mxCell id="0" />
        <mxCell id="1" parent="0" />
        <mxCell id="BH-FJEKS01s8CVu1ewul-86" value="" style="group" vertex="1" connectable="0" parent="1">
          <mxGeometry x="80" y="80" width="319" height="140" as="geometry" />
        </mxCell>
        <mxCell id="BH-FJEKS01s8CVu1ewul-24" value="" style="group" vertex="1" connectable="0" parent="BH-FJEKS01s8CVu1ewul-86">
          <mxGeometry width="319" height="140" as="geometry" />
        </mxCell>
        <mxCell id="BH-FJEKS01s8CVu1ewul-17" value="" style="rounded=0;whiteSpace=wrap;html=1;" vertex="1" parent="BH-FJEKS01s8CVu1ewul-24">
          <mxGeometry width="319" height="140" as="geometry" />
        </mxCell>
        <mxCell id="BH-FJEKS01s8CVu1ewul-23" value="" style="endArrow=none;html=1;rounded=0;" edge="1" parent="BH-FJEKS01s8CVu1ewul-24">
          <mxGeometry width="50" height="50" relative="1" as="geometry">
            <mxPoint x="159.99999999999997" y="140" as="sourcePoint" />
            <mxPoint x="159.99999999999997" y="40" as="targetPoint" />
          </mxGeometry>
        </mxCell>
        <mxCell id="BH-FJEKS01s8CVu1ewul-13" value="" style="curved=1;endArrow=classic;html=1;rounded=0;entryX=0;entryY=0.5;entryDx=0;entryDy=0;fillColor=#dae8fc;strokeColor=#6c8ebf;" edge="1" parent="BH-FJEKS01s8CVu1ewul-24">
          <mxGeometry width="50" height="50" relative="1" as="geometry">
            <mxPoint x="259.99540983606556" y="59.99764705882353" as="sourcePoint" />
            <mxPoint x="259.99540983606556" y="100.46823529411765" as="targetPoint" />
            <Array as="points">
              <mxPoint x="312.2904918032787" y="78.82117647058823" />
            </Array>
          </mxGeometry>
        </mxCell>
        <mxCell id="BH-FJEKS01s8CVu1ewul-14" value="HB" style="edgeLabel;html=1;align=center;verticalAlign=middle;resizable=0;points=[];labelPosition=left;verticalLabelPosition=middle;" vertex="1" connectable="0" parent="BH-FJEKS01s8CVu1ewul-13">
          <mxGeometry x="-0.4586" y="9" relative="1" as="geometry">
            <mxPoint x="-10" y="13" as="offset" />
          </mxGeometry>
        </mxCell>
        <mxCell id="BH-FJEKS01s8CVu1ewul-1" value="int x;&lt;br&gt;&lt;font color=&quot;#ff3333&quot;&gt;volatile&lt;/font&gt; int y;" style="text;html=1;strokeColor=none;fillColor=none;align=center;verticalAlign=middle;whiteSpace=wrap;rounded=0;" vertex="1" parent="BH-FJEKS01s8CVu1ewul-86">
          <mxGeometry x="78.44262295081967" width="167.344262295082" height="37.647058823529406" as="geometry" />
        </mxCell>
        <mxCell id="BH-FJEKS01s8CVu1ewul-3" value="x = 1;" style="rounded=1;whiteSpace=wrap;html=1;" vertex="1" parent="BH-FJEKS01s8CVu1ewul-86">
          <mxGeometry x="61" y="46" width="84" height="24" as="geometry" />
        </mxCell>
        <mxCell id="BH-FJEKS01s8CVu1ewul-4" value="y = 1;" style="rounded=1;whiteSpace=wrap;html=1;" vertex="1" parent="BH-FJEKS01s8CVu1ewul-86">
          <mxGeometry x="61" y="84" width="84" height="24" as="geometry" />
        </mxCell>
        <mxCell id="BH-FJEKS01s8CVu1ewul-6" value="r1 = y;&amp;nbsp; (1)" style="rounded=1;whiteSpace=wrap;html=1;" vertex="1" parent="BH-FJEKS01s8CVu1ewul-86">
          <mxGeometry x="175" y="46" width="84" height="24" as="geometry" />
        </mxCell>
        <mxCell id="BH-FJEKS01s8CVu1ewul-7" value="r2 = x;&amp;nbsp; (1)" style="rounded=1;whiteSpace=wrap;html=1;" vertex="1" parent="BH-FJEKS01s8CVu1ewul-86">
          <mxGeometry x="175" y="84" width="84" height="24" as="geometry" />
        </mxCell>
        <mxCell id="BH-FJEKS01s8CVu1ewul-10" value="" style="curved=1;endArrow=classic;html=1;rounded=0;entryX=0;entryY=0.5;entryDx=0;entryDy=0;fillColor=#dae8fc;strokeColor=#6c8ebf;" edge="1" parent="BH-FJEKS01s8CVu1ewul-86" target="BH-FJEKS01s8CVu1ewul-4">
          <mxGeometry width="50" height="50" relative="1" as="geometry">
            <mxPoint x="62.754098360655746" y="56.470588235294116" as="sourcePoint" />
            <mxPoint x="52.29508196721312" y="103.52941176470588" as="targetPoint" />
            <Array as="points">
              <mxPoint y="75.29411764705881" />
            </Array>
          </mxGeometry>
        </mxCell>
        <mxCell id="BH-FJEKS01s8CVu1ewul-11" value="HB" style="edgeLabel;html=1;align=center;verticalAlign=middle;resizable=0;points=[];labelPosition=left;verticalLabelPosition=middle;" vertex="1" connectable="0" parent="BH-FJEKS01s8CVu1ewul-10">
          <mxGeometry x="-0.4586" y="9" relative="1" as="geometry">
            <mxPoint x="-1" as="offset" />
          </mxGeometry>
        </mxCell>
        <mxCell id="BH-FJEKS01s8CVu1ewul-15" value="" style="endArrow=classic;html=1;rounded=0;exitX=1;exitY=0.5;exitDx=0;exitDy=0;entryX=0;entryY=0.5;entryDx=0;entryDy=0;fillColor=#dae8fc;strokeColor=#6c8ebf;" edge="1" parent="BH-FJEKS01s8CVu1ewul-86" source="BH-FJEKS01s8CVu1ewul-4" target="BH-FJEKS01s8CVu1ewul-6">
          <mxGeometry width="50" height="50" relative="1" as="geometry">
            <mxPoint x="156.88524590163937" y="96" as="sourcePoint" />
            <mxPoint x="230.09836065573774" y="94.11764705882354" as="targetPoint" />
          </mxGeometry>
        </mxCell>
        <mxCell id="BH-FJEKS01s8CVu1ewul-16" value="HB" style="edgeLabel;html=1;align=center;verticalAlign=middle;resizable=0;points=[];" vertex="1" connectable="0" parent="BH-FJEKS01s8CVu1ewul-15">
          <mxGeometry x="-0.025" y="-2" relative="1" as="geometry">
            <mxPoint x="-3" y="-2" as="offset" />
          </mxGeometry>
        </mxCell>
        <mxCell id="BH-FJEKS01s8CVu1ewul-102" value="" style="group" vertex="1" connectable="0" parent="1">
          <mxGeometry x="80" y="280" width="319" height="140" as="geometry" />
        </mxCell>
        <mxCell id="BH-FJEKS01s8CVu1ewul-103" value="" style="group" vertex="1" connectable="0" parent="BH-FJEKS01s8CVu1ewul-102">
          <mxGeometry width="319" height="140" as="geometry" />
        </mxCell>
        <mxCell id="BH-FJEKS01s8CVu1ewul-104" value="" style="rounded=0;whiteSpace=wrap;html=1;" vertex="1" parent="BH-FJEKS01s8CVu1ewul-103">
          <mxGeometry width="319" height="140" as="geometry" />
        </mxCell>
        <mxCell id="BH-FJEKS01s8CVu1ewul-105" value="" style="endArrow=none;html=1;rounded=0;" edge="1" parent="BH-FJEKS01s8CVu1ewul-103">
          <mxGeometry width="50" height="50" relative="1" as="geometry">
            <mxPoint x="159.99999999999997" y="140" as="sourcePoint" />
            <mxPoint x="159.99999999999997" y="40" as="targetPoint" />
          </mxGeometry>
        </mxCell>
        <mxCell id="BH-FJEKS01s8CVu1ewul-106" value="" style="curved=1;endArrow=classic;html=1;rounded=0;entryX=0;entryY=0.5;entryDx=0;entryDy=0;fillColor=#dae8fc;strokeColor=#6c8ebf;" edge="1" parent="BH-FJEKS01s8CVu1ewul-103">
          <mxGeometry width="50" height="50" relative="1" as="geometry">
            <mxPoint x="259.99540983606556" y="59.99764705882353" as="sourcePoint" />
            <mxPoint x="259.99540983606556" y="100.46823529411765" as="targetPoint" />
            <Array as="points">
              <mxPoint x="312.2904918032787" y="78.82117647058823" />
            </Array>
          </mxGeometry>
        </mxCell>
        <mxCell id="BH-FJEKS01s8CVu1ewul-107" value="HB" style="edgeLabel;html=1;align=center;verticalAlign=middle;resizable=0;points=[];labelPosition=left;verticalLabelPosition=middle;" vertex="1" connectable="0" parent="BH-FJEKS01s8CVu1ewul-106">
          <mxGeometry x="-0.4586" y="9" relative="1" as="geometry">
            <mxPoint x="-10" y="13" as="offset" />
          </mxGeometry>
        </mxCell>
        <mxCell id="BH-FJEKS01s8CVu1ewul-108" value="int x;&lt;br&gt;&lt;font color=&quot;#ff3333&quot;&gt;volatile&lt;/font&gt; int y;" style="text;html=1;strokeColor=none;fillColor=none;align=center;verticalAlign=middle;whiteSpace=wrap;rounded=0;" vertex="1" parent="BH-FJEKS01s8CVu1ewul-102">
          <mxGeometry x="78.44262295081967" width="167.344262295082" height="37.647058823529406" as="geometry" />
        </mxCell>
        <mxCell id="BH-FJEKS01s8CVu1ewul-109" value="x = 1;" style="rounded=1;whiteSpace=wrap;html=1;" vertex="1" parent="BH-FJEKS01s8CVu1ewul-102">
          <mxGeometry x="61" y="46" width="84" height="24" as="geometry" />
        </mxCell>
        <mxCell id="BH-FJEKS01s8CVu1ewul-110" value="y = 1;" style="rounded=1;whiteSpace=wrap;html=1;" vertex="1" parent="BH-FJEKS01s8CVu1ewul-102">
          <mxGeometry x="61" y="84" width="84" height="24" as="geometry" />
        </mxCell>
        <mxCell id="BH-FJEKS01s8CVu1ewul-111" value="r1 = y;&amp;nbsp; (0)" style="rounded=1;whiteSpace=wrap;html=1;" vertex="1" parent="BH-FJEKS01s8CVu1ewul-102">
          <mxGeometry x="175" y="46" width="84" height="24" as="geometry" />
        </mxCell>
        <mxCell id="BH-FJEKS01s8CVu1ewul-112" value="r2 = x;&amp;nbsp; (0)" style="rounded=1;whiteSpace=wrap;html=1;" vertex="1" parent="BH-FJEKS01s8CVu1ewul-102">
          <mxGeometry x="175" y="84" width="84" height="24" as="geometry" />
        </mxCell>
        <mxCell id="BH-FJEKS01s8CVu1ewul-113" value="" style="curved=1;endArrow=classic;html=1;rounded=0;entryX=0;entryY=0.5;entryDx=0;entryDy=0;fillColor=#dae8fc;strokeColor=#6c8ebf;" edge="1" parent="BH-FJEKS01s8CVu1ewul-102" target="BH-FJEKS01s8CVu1ewul-110">
          <mxGeometry width="50" height="50" relative="1" as="geometry">
            <mxPoint x="62.754098360655746" y="56.470588235294116" as="sourcePoint" />
            <mxPoint x="52.29508196721312" y="103.52941176470588" as="targetPoint" />
            <Array as="points">
              <mxPoint y="75.29411764705881" />
            </Array>
          </mxGeometry>
        </mxCell>
        <mxCell id="BH-FJEKS01s8CVu1ewul-114" value="HB" style="edgeLabel;html=1;align=center;verticalAlign=middle;resizable=0;points=[];labelPosition=left;verticalLabelPosition=middle;" vertex="1" connectable="0" parent="BH-FJEKS01s8CVu1ewul-113">
          <mxGeometry x="-0.4586" y="9" relative="1" as="geometry">
            <mxPoint x="-1" as="offset" />
          </mxGeometry>
        </mxCell>
        <mxCell id="BH-FJEKS01s8CVu1ewul-131" value="" style="group" vertex="1" connectable="0" parent="1">
          <mxGeometry x="80" y="480" width="319" height="140" as="geometry" />
        </mxCell>
        <mxCell id="BH-FJEKS01s8CVu1ewul-132" value="" style="group" vertex="1" connectable="0" parent="BH-FJEKS01s8CVu1ewul-131">
          <mxGeometry width="319" height="140" as="geometry" />
        </mxCell>
        <mxCell id="BH-FJEKS01s8CVu1ewul-133" value="" style="rounded=0;whiteSpace=wrap;html=1;" vertex="1" parent="BH-FJEKS01s8CVu1ewul-132">
          <mxGeometry width="319" height="140" as="geometry" />
        </mxCell>
        <mxCell id="BH-FJEKS01s8CVu1ewul-134" value="" style="endArrow=none;html=1;rounded=0;" edge="1" parent="BH-FJEKS01s8CVu1ewul-132">
          <mxGeometry width="50" height="50" relative="1" as="geometry">
            <mxPoint x="159.99999999999997" y="140" as="sourcePoint" />
            <mxPoint x="159.99999999999997" y="40" as="targetPoint" />
          </mxGeometry>
        </mxCell>
        <mxCell id="BH-FJEKS01s8CVu1ewul-135" value="" style="curved=1;endArrow=classic;html=1;rounded=0;entryX=0;entryY=0.5;entryDx=0;entryDy=0;fillColor=#dae8fc;strokeColor=#6c8ebf;" edge="1" parent="BH-FJEKS01s8CVu1ewul-132">
          <mxGeometry width="50" height="50" relative="1" as="geometry">
            <mxPoint x="259.99540983606556" y="59.99764705882353" as="sourcePoint" />
            <mxPoint x="259.99540983606556" y="100.46823529411765" as="targetPoint" />
            <Array as="points">
              <mxPoint x="312.2904918032787" y="78.82117647058823" />
            </Array>
          </mxGeometry>
        </mxCell>
        <mxCell id="BH-FJEKS01s8CVu1ewul-136" value="HB" style="edgeLabel;html=1;align=center;verticalAlign=middle;resizable=0;points=[];labelPosition=left;verticalLabelPosition=middle;" vertex="1" connectable="0" parent="BH-FJEKS01s8CVu1ewul-135">
          <mxGeometry x="-0.4586" y="9" relative="1" as="geometry">
            <mxPoint x="-10" y="13" as="offset" />
          </mxGeometry>
        </mxCell>
        <mxCell id="BH-FJEKS01s8CVu1ewul-137" value="int x;&lt;br&gt;&lt;font color=&quot;#ff3333&quot;&gt;volatile&lt;/font&gt; int y;" style="text;html=1;strokeColor=none;fillColor=none;align=center;verticalAlign=middle;whiteSpace=wrap;rounded=0;" vertex="1" parent="BH-FJEKS01s8CVu1ewul-131">
          <mxGeometry x="78.44262295081967" width="167.344262295082" height="37.647058823529406" as="geometry" />
        </mxCell>
        <mxCell id="BH-FJEKS01s8CVu1ewul-138" value="x = 1;" style="rounded=1;whiteSpace=wrap;html=1;" vertex="1" parent="BH-FJEKS01s8CVu1ewul-131">
          <mxGeometry x="61" y="46" width="84" height="24" as="geometry" />
        </mxCell>
        <mxCell id="BH-FJEKS01s8CVu1ewul-139" value="y = 1;" style="rounded=1;whiteSpace=wrap;html=1;" vertex="1" parent="BH-FJEKS01s8CVu1ewul-131">
          <mxGeometry x="61" y="84" width="84" height="24" as="geometry" />
        </mxCell>
        <mxCell id="BH-FJEKS01s8CVu1ewul-140" value="r1 = y;&amp;nbsp; (0)" style="rounded=1;whiteSpace=wrap;html=1;" vertex="1" parent="BH-FJEKS01s8CVu1ewul-131">
          <mxGeometry x="175" y="46" width="84" height="24" as="geometry" />
        </mxCell>
        <mxCell id="BH-FJEKS01s8CVu1ewul-141" value="r2 = x;&amp;nbsp; (1)" style="rounded=1;whiteSpace=wrap;html=1;" vertex="1" parent="BH-FJEKS01s8CVu1ewul-131">
          <mxGeometry x="175" y="84" width="84" height="24" as="geometry" />
        </mxCell>
        <mxCell id="BH-FJEKS01s8CVu1ewul-142" value="" style="curved=1;endArrow=classic;html=1;rounded=0;entryX=0;entryY=0.5;entryDx=0;entryDy=0;fillColor=#dae8fc;strokeColor=#6c8ebf;" edge="1" parent="BH-FJEKS01s8CVu1ewul-131" target="BH-FJEKS01s8CVu1ewul-139">
          <mxGeometry width="50" height="50" relative="1" as="geometry">
            <mxPoint x="62.754098360655746" y="56.470588235294116" as="sourcePoint" />
            <mxPoint x="52.29508196721312" y="103.52941176470588" as="targetPoint" />
            <Array as="points">
              <mxPoint y="75.29411764705881" />
            </Array>
          </mxGeometry>
        </mxCell>
        <mxCell id="BH-FJEKS01s8CVu1ewul-143" value="HB" style="edgeLabel;html=1;align=center;verticalAlign=middle;resizable=0;points=[];labelPosition=left;verticalLabelPosition=middle;" vertex="1" connectable="0" parent="BH-FJEKS01s8CVu1ewul-142">
          <mxGeometry x="-0.4586" y="9" relative="1" as="geometry">
            <mxPoint x="-1" as="offset" />
          </mxGeometry>
        </mxCell>
        <mxCell id="BH-FJEKS01s8CVu1ewul-144" value="" style="group" vertex="1" connectable="0" parent="1">
          <mxGeometry x="480" y="80" width="319" height="140" as="geometry" />
        </mxCell>
        <mxCell id="BH-FJEKS01s8CVu1ewul-145" value="" style="group" vertex="1" connectable="0" parent="BH-FJEKS01s8CVu1ewul-144">
          <mxGeometry width="319" height="140" as="geometry" />
        </mxCell>
        <mxCell id="BH-FJEKS01s8CVu1ewul-146" value="" style="rounded=0;whiteSpace=wrap;html=1;" vertex="1" parent="BH-FJEKS01s8CVu1ewul-145">
          <mxGeometry width="319" height="140" as="geometry" />
        </mxCell>
        <mxCell id="BH-FJEKS01s8CVu1ewul-147" value="" style="endArrow=none;html=1;rounded=0;" edge="1" parent="BH-FJEKS01s8CVu1ewul-145">
          <mxGeometry width="50" height="50" relative="1" as="geometry">
            <mxPoint x="159.99999999999997" y="140" as="sourcePoint" />
            <mxPoint x="159.99999999999997" y="40" as="targetPoint" />
          </mxGeometry>
        </mxCell>
        <mxCell id="BH-FJEKS01s8CVu1ewul-148" value="" style="curved=1;endArrow=classic;html=1;rounded=0;entryX=0;entryY=0.5;entryDx=0;entryDy=0;fillColor=#dae8fc;strokeColor=#6c8ebf;" edge="1" parent="BH-FJEKS01s8CVu1ewul-145">
          <mxGeometry width="50" height="50" relative="1" as="geometry">
            <mxPoint x="259.99540983606556" y="59.99764705882353" as="sourcePoint" />
            <mxPoint x="259.99540983606556" y="100.46823529411765" as="targetPoint" />
            <Array as="points">
              <mxPoint x="312.2904918032787" y="78.82117647058823" />
            </Array>
          </mxGeometry>
        </mxCell>
        <mxCell id="BH-FJEKS01s8CVu1ewul-149" value="HB" style="edgeLabel;html=1;align=center;verticalAlign=middle;resizable=0;points=[];labelPosition=left;verticalLabelPosition=middle;" vertex="1" connectable="0" parent="BH-FJEKS01s8CVu1ewul-148">
          <mxGeometry x="-0.4586" y="9" relative="1" as="geometry">
            <mxPoint x="-10" y="13" as="offset" />
          </mxGeometry>
        </mxCell>
        <mxCell id="BH-FJEKS01s8CVu1ewul-162" value="" style="shape=mxgraph.mockup.markup.redX;fillColor=#ff0000;html=1;shadow=0;whiteSpace=wrap;strokeColor=none;" vertex="1" parent="BH-FJEKS01s8CVu1ewul-145">
          <mxGeometry x="290" y="110" width="20" height="20" as="geometry" />
        </mxCell>
        <mxCell id="BH-FJEKS01s8CVu1ewul-150" value="int x;&lt;br&gt;&lt;font color=&quot;#ff3333&quot;&gt;volatile&lt;/font&gt; int y;" style="text;html=1;strokeColor=none;fillColor=none;align=center;verticalAlign=middle;whiteSpace=wrap;rounded=0;" vertex="1" parent="BH-FJEKS01s8CVu1ewul-144">
          <mxGeometry x="78.44262295081967" width="167.344262295082" height="37.647058823529406" as="geometry" />
        </mxCell>
        <mxCell id="BH-FJEKS01s8CVu1ewul-151" value="x = 1;" style="rounded=1;whiteSpace=wrap;html=1;" vertex="1" parent="BH-FJEKS01s8CVu1ewul-144">
          <mxGeometry x="61" y="46" width="84" height="24" as="geometry" />
        </mxCell>
        <mxCell id="BH-FJEKS01s8CVu1ewul-152" value="y = 1;" style="rounded=1;whiteSpace=wrap;html=1;" vertex="1" parent="BH-FJEKS01s8CVu1ewul-144">
          <mxGeometry x="61" y="84" width="84" height="24" as="geometry" />
        </mxCell>
        <mxCell id="BH-FJEKS01s8CVu1ewul-153" value="r1 = y;&amp;nbsp; (1)" style="rounded=1;whiteSpace=wrap;html=1;" vertex="1" parent="BH-FJEKS01s8CVu1ewul-144">
          <mxGeometry x="175" y="46" width="84" height="24" as="geometry" />
        </mxCell>
        <mxCell id="BH-FJEKS01s8CVu1ewul-154" value="r2 = x;&amp;nbsp; (0)" style="rounded=1;whiteSpace=wrap;html=1;" vertex="1" parent="BH-FJEKS01s8CVu1ewul-144">
          <mxGeometry x="175" y="84" width="84" height="24" as="geometry" />
        </mxCell>
        <mxCell id="BH-FJEKS01s8CVu1ewul-155" value="" style="curved=1;endArrow=classic;html=1;rounded=0;entryX=0;entryY=0.5;entryDx=0;entryDy=0;fillColor=#dae8fc;strokeColor=#6c8ebf;" edge="1" parent="BH-FJEKS01s8CVu1ewul-144" target="BH-FJEKS01s8CVu1ewul-152">
          <mxGeometry width="50" height="50" relative="1" as="geometry">
            <mxPoint x="62.754098360655746" y="56.470588235294116" as="sourcePoint" />
            <mxPoint x="52.29508196721312" y="103.52941176470588" as="targetPoint" />
            <Array as="points">
              <mxPoint y="75.29411764705881" />
            </Array>
          </mxGeometry>
        </mxCell>
        <mxCell id="BH-FJEKS01s8CVu1ewul-156" value="HB" style="edgeLabel;html=1;align=center;verticalAlign=middle;resizable=0;points=[];labelPosition=left;verticalLabelPosition=middle;" vertex="1" connectable="0" parent="BH-FJEKS01s8CVu1ewul-155">
          <mxGeometry x="-0.4586" y="9" relative="1" as="geometry">
            <mxPoint x="-1" as="offset" />
          </mxGeometry>
        </mxCell>
        <mxCell id="BH-FJEKS01s8CVu1ewul-157" value="" style="endArrow=classic;html=1;rounded=0;exitX=1;exitY=0.5;exitDx=0;exitDy=0;entryX=0;entryY=0.5;entryDx=0;entryDy=0;fillColor=#dae8fc;strokeColor=#6c8ebf;" edge="1" parent="BH-FJEKS01s8CVu1ewul-144" source="BH-FJEKS01s8CVu1ewul-152" target="BH-FJEKS01s8CVu1ewul-153">
          <mxGeometry width="50" height="50" relative="1" as="geometry">
            <mxPoint x="156.88524590163937" y="96" as="sourcePoint" />
            <mxPoint x="230.09836065573774" y="94.11764705882354" as="targetPoint" />
          </mxGeometry>
        </mxCell>
        <mxCell id="BH-FJEKS01s8CVu1ewul-158" value="HB" style="edgeLabel;html=1;align=center;verticalAlign=middle;resizable=0;points=[];" vertex="1" connectable="0" parent="BH-FJEKS01s8CVu1ewul-157">
          <mxGeometry x="-0.025" y="-2" relative="1" as="geometry">
            <mxPoint x="-3" y="-2" as="offset" />
          </mxGeometry>
        </mxCell>
      </root>
    </mxGraphModel>
  </diagram>
</mxfile>
